<svg viewBox="0 0 367 387" fill="none" xmlns="http://www.w3.org/2000/svg">
<g clip-path="url(#clip0_0_1)">
<path d="M245.57 214.15L357.27 87H330.81L233.78 197.38L156.34 87H67L184.13 253.93L67 387.25H93.46L195.86 270.66L277.66 387.25H367M103.01 106.54H143.66L330.79 368.67H290.13" fill="white"/>
</g>
<g clip-path="url(#clip1_0_1)">
<path fill-rule="evenodd" clip-rule="evenodd" d="M99.1014 6.69164C87.5882 9.97794 75.7869 16.5134 67.4851 22.8412C59.1832 29.1691 37.4977 45.1138 32.5468 50.1664C27.7466 55.0651 22.0765 56.7739 19.5953 62.8103C18.6385 65.1382 26.0838 72.1607 27.5428 72.8898C31.3291 74.7818 37.5007 71.4269 40.3169 71.2265C49.4565 70.5763 58.8225 69.3149 68.0794 75.8125C66.3665 77.6059 69.0864 75.6752 65.5851 91.4042C64.3505 96.9509 61.6524 111.341 64.9676 114.086C68.2615 116.814 70.2732 106.181 73.5458 107.809C73.5442 107.811 73.5451 107.818 73.544 107.82C73.5433 107.822 73.5424 107.829 73.5421 107.831C73.5423 107.833 73.5396 107.841 73.5402 107.842C73.5413 107.843 73.5489 107.843 73.5504 107.844C73.5604 107.847 73.5822 107.846 73.6032 107.843C73.6093 107.846 73.6174 107.844 73.6236 107.847C73.6467 107.859 73.6678 107.873 73.6911 107.884L73.7106 107.83C75.2599 107.415 87.3389 101.896 98.3657 104.115C104.582 105.366 114.496 101.859 120.199 100.029C129.244 97.1281 141.942 94.5062 149.997 94.3565C155.931 94.2462 161.3 90.7621 167.009 90.356C170.377 90.1163 167.254 78.8552 167.184 77.6656C166.85 71.9483 159.988 63.163 156.453 55.3559C152.919 47.5487 146.996 37.6381 140.473 29.8667C133.95 22.0953 125.149 12.0324 118.953 8.93591C112.756 5.83946 111.597 3.12498 99.1014 6.69164Z" fill="#D00000" stroke="black" stroke-width="0.833495"/>
<path opacity="0.101124" fill-rule="evenodd" clip-rule="evenodd" d="M71.5901 34.1244C64.1199 36.0011 57.7223 60.7631 48.5154 65.0677C42.4937 67.8831 26.0838 72.1607 27.5428 72.8898C31.3291 74.7818 37.5007 71.4269 40.3169 71.2265C49.4565 70.5763 58.8225 69.3149 68.0794 75.8125C66.3665 77.6059 69.0864 75.6752 65.5851 91.4042C64.3505 96.9509 61.6524 111.341 64.9676 114.086C68.2615 116.814 70.2732 106.181 73.5458 107.809C73.5442 107.811 73.5451 107.818 73.544 107.82C73.5433 107.822 73.5424 107.829 73.5421 107.831C73.5423 107.833 73.5396 107.841 73.5402 107.842C73.5413 107.843 73.5489 107.843 73.5504 107.844C73.5604 107.847 73.5822 107.846 73.6032 107.843C73.6093 107.846 73.6174 107.844 73.6236 107.847C73.6467 107.859 73.6678 107.873 73.6911 107.884L73.7106 107.83C75.2599 107.415 87.3389 101.896 98.3657 104.115C104.582 105.366 114.496 101.859 120.199 100.029C129.244 97.1281 141.942 94.5062 149.997 94.3565C155.931 94.2462 161.3 90.7621 167.009 90.356C170.377 90.1164 146.078 92.2769 155.762 85.0123C160.058 81.7896 112.749 91.7293 94.586 70.2351C76.6014 48.9517 79.24 32.2026 71.5901 34.1244Z" fill="#0E0000"/>
<g opacity="0.269663">
<path fill-rule="evenodd" clip-rule="evenodd" d="M20.3624 60.167C21.8172 61.1668 31.5877 73.984 32.742 73.0869C32.8815 71.6715 31.742 71.1144 30.9405 70.9528C32.0137 69.5381 32.2161 68.0589 30.3535 67.9318C28.2885 67.5536 26.0341 67.2883 28.2507 64.9846C29.2741 63.6934 28.1819 61.4004 27.5534 60.234C25.9025 59.3092 24.6584 57.6359 23.9817 56.4985" fill="black"/>
<path d="M20.3624 60.167C21.8172 61.1668 31.5877 73.984 32.742 73.0869C32.8815 71.6715 31.742 71.1144 30.9405 70.9528C32.0137 69.5381 32.2161 68.0589 30.3535 67.9318C28.2885 67.5536 26.0341 67.2883 28.2507 64.9846C29.2741 63.6934 28.1819 61.4004 27.5534 60.234C25.9025 59.3092 24.6584 57.6359 23.9817 56.4985" stroke="black" stroke-width="0.830161"/>
</g>
<g opacity="0.294045">
<path fill-rule="evenodd" clip-rule="evenodd" d="M152.977 87.7671C149.924 86.6442 146.093 85.3473 143.394 85.5204C141.54 83.8962 140.117 85.8977 138.51 86.4304C138.241 83.3032 133.794 87.7529 131.835 87.7785C130.445 88.6063 131.403 85.3137 128.913 86.5661C125.816 86.8695 123.901 87.0902 121.604 88.1215C121.052 91.5263 116.094 93.4443 115.351 89.7126C112.648 90.9327 107.621 93.2994 107.588 89.4399C103.26 92.9217 103.122 96.0679 98.8964 97.7483C99.2703 94.7347 89.7308 93.1133 88.4305 96.2761C85.8126 97.3694 88.9751 92.3155 85.1919 93.7044C80.9306 92.4195 83.4108 101.325 74.7222 97.6841C69.8844 97.5227 72.5635 104.788 69.3708 107.832C68.5202 111.033 64.8297 106.717 63.336 106.957C63.6834 112.025 64.7321 110.306 63.6306 113.754C62.9734 118.073 62.0937 120.236 66.6756 121.136C68.1592 119.052 66.601 119.934 66.9328 123.778C69.5786 122.979 73.0566 118.407 72.6996 123.106C74.495 120.27 80.1787 118.792 80.1072 115.738C82.9842 116.051 86.2129 119.384 88.6415 115.333C91.0796 112.341 94.5842 110.954 94.621 113.264C97.5848 116.135 97.8812 115.553 100.963 114.823C100.169 111.121 108.173 114.569 103.946 110.883C105.625 109.14 110.169 108.121 112.795 108.727C115.118 112.234 122.195 112.524 123.296 107.984C123.528 104.413 128.902 103.192 130.912 105.661C134.407 102.483 139.919 107.1 142.926 104.665C140.223 101.026 146.747 98.6485 147.965 101.438C150.359 100.105 152.586 95.3096 155.204 98.743C158.215 97.7252 161.893 96.3101 164.44 95.2494C166.352 98.5183 171.302 95.1554 169.156 91.1989C167.995 88.373 172.97 92.5903 171.616 89.0048C170.075 85.1479 167.911 79.7876 165.26 79.9648C161.649 79.0292 159.508 81.5561 159.358 85.132C159.313 82.5225 155.047 85.0661 152.81 86.0124L151.583 86.315L150.118 85.243" fill="black"/>
<path d="M152.977 87.7671C149.924 86.6442 146.093 85.3473 143.394 85.5204C141.54 83.8962 140.117 85.8977 138.51 86.4304C138.241 83.3032 133.794 87.7529 131.835 87.7785C130.445 88.6063 131.403 85.3137 128.913 86.5661C125.816 86.8695 123.901 87.0902 121.604 88.1215C121.052 91.5263 116.094 93.4443 115.351 89.7126C112.648 90.9327 107.621 93.2994 107.588 89.4399C103.26 92.9217 103.122 96.0679 98.8964 97.7483C99.2703 94.7347 89.7308 93.1133 88.4305 96.2761C85.8126 97.3694 88.9751 92.3155 85.1919 93.7044C80.9306 92.4195 83.4108 101.325 74.7222 97.6841C69.8844 97.5227 72.5635 104.788 69.3708 107.832C68.5202 111.033 64.8297 106.717 63.336 106.957C63.6834 112.025 64.7321 110.306 63.6306 113.754C62.9734 118.073 62.0937 120.236 66.6756 121.136C68.1592 119.052 66.601 119.934 66.9328 123.778C69.5786 122.979 73.0566 118.407 72.6996 123.106C74.495 120.27 80.1787 118.792 80.1072 115.738C82.9842 116.051 86.2129 119.384 88.6415 115.333C91.0796 112.341 94.5842 110.954 94.621 113.264C97.5848 116.135 97.8812 115.553 100.963 114.823C100.169 111.121 108.173 114.569 103.946 110.883C105.625 109.14 110.169 108.121 112.795 108.727C115.118 112.234 122.195 112.524 123.296 107.984C123.528 104.413 128.902 103.192 130.912 105.661C134.407 102.483 139.919 107.1 142.927 104.665C140.223 101.026 146.747 98.6485 147.965 101.438C150.359 100.105 152.586 95.3096 155.204 98.743C158.215 97.7252 161.893 96.3101 164.44 95.2494C166.352 98.5183 171.302 95.1554 169.156 91.1989C167.995 88.373 172.97 92.5903 171.616 89.0048C170.075 85.1479 167.911 79.7876 165.26 79.9648C161.649 79.0292 159.508 81.5561 159.358 85.132C159.313 82.5225 155.047 85.0661 152.81 86.0124L151.583 86.315L150.118 85.243" stroke="black" stroke-width="0.601426"/>
</g>
<path fill-rule="evenodd" clip-rule="evenodd" d="M154.995 88.7208C151.942 87.5979 149.113 87.44 146.414 87.6132C144.56 85.9889 142.36 86.5216 140.753 87.0543C140.484 83.927 136.814 89.8456 134.856 89.8712C133.465 90.6991 134.424 87.4065 131.933 88.6589C128.837 88.9623 125.247 86.971 122.95 88.0024C122.398 91.4071 117.44 93.3251 116.697 89.5934C113.994 90.8135 110.641 95.3921 110.608 91.5327C105.534 91.302 103.36 96.4758 99.1348 98.1562C99.5087 95.1426 92.7511 95.206 91.4507 98.3688C88.8328 99.4622 90.7545 92.6585 86.9714 94.0474C82.7101 92.7626 82.8264 101.567 77.7424 99.7768C72.9046 99.6155 73.5803 104.603 70.3876 107.647C69.537 110.847 67.8499 108.81 66.3562 109.049C68.8141 112.667 58.8205 111.914 61.7873 117.493C61.13 121.812 62.1349 124.917 66.7168 125.816C68.2004 123.733 69.6212 122.026 69.9531 125.87C72.5989 125.072 76.0768 120.499 75.7198 125.198C77.5152 122.363 83.1989 120.885 83.1275 117.831C86.0044 118.144 89.2332 121.476 91.6617 117.426C94.0999 114.434 94.5025 116.875 94.5393 119.186C97.5031 122.057 100.901 117.646 103.983 116.916C103.189 113.214 111.194 116.661 106.967 112.976C108.645 111.232 113.189 110.213 115.815 110.819C118.119 113.086 125.215 114.617 126.317 110.077C126.548 106.506 131.923 105.284 133.932 107.753C137.427 104.576 142.939 109.193 145.947 106.757C143.244 103.119 149.767 100.741 150.985 103.531C153.379 102.198 155.606 97.4024 158.224 100.836C161.236 99.8179 164.913 98.4028 167.46 97.3421C169.372 100.611 174.322 97.2482 172.176 93.2917C171.015 90.4657 175.991 94.6831 174.636 91.0976C174.666 86.9944 173.176 80.6447 168.28 82.0575C164.669 81.1219 162.528 83.6488 162.378 87.2247C162.333 84.6152 156.632 85.5575 154.395 86.5038L153.662 86.9058L153.138 87.3357" fill="white"/>
<path d="M154.995 88.7208C151.942 87.5979 149.113 87.44 146.414 87.6132C144.56 85.9889 142.36 86.5216 140.753 87.0543C140.484 83.927 136.814 89.8456 134.856 89.8712C133.465 90.6991 134.424 87.4065 131.933 88.6589C128.837 88.9623 125.247 86.971 122.95 88.0024C122.398 91.4071 117.44 93.3251 116.697 89.5934C113.994 90.8135 110.641 95.3921 110.608 91.5327C105.534 91.302 103.36 96.4758 99.1348 98.1562C99.5087 95.1426 92.7511 95.206 91.4507 98.3688C88.8328 99.4622 90.7545 92.6585 86.9714 94.0474C82.7101 92.7626 82.8264 101.567 77.7424 99.7768C72.9046 99.6155 73.5803 104.603 70.3876 107.647C69.537 110.847 67.8499 108.81 66.3562 109.049C68.8141 112.667 58.8205 111.914 61.7873 117.493C61.13 121.812 62.1349 124.917 66.7168 125.816C68.2004 123.733 69.6212 122.026 69.9531 125.87C72.5989 125.072 76.0768 120.499 75.7198 125.198C77.5152 122.363 83.1989 120.885 83.1275 117.831C86.0044 118.144 89.2332 121.476 91.6617 117.426C94.0999 114.434 94.5025 116.875 94.5393 119.186C97.5031 122.057 100.901 117.646 103.983 116.916C103.189 113.214 111.194 116.661 106.967 112.976C108.645 111.232 113.189 110.213 115.815 110.819C118.119 113.086 125.215 114.617 126.317 110.077C126.548 106.506 131.923 105.284 133.932 107.753C137.427 104.576 142.939 109.193 145.947 106.757C143.244 103.119 149.767 100.741 150.985 103.531C153.379 102.198 155.606 97.4024 158.224 100.836C161.236 99.8179 164.913 98.4028 167.46 97.3421C169.372 100.611 174.322 97.2482 172.176 93.2917C171.015 90.4657 175.991 94.6831 174.636 91.0976C174.666 86.9944 173.176 80.6447 168.28 82.0575C164.669 81.1219 162.528 83.6488 162.378 87.2247C162.333 84.6152 156.632 85.5575 154.395 86.5038L153.662 86.9058L153.138 87.3357" stroke="black" stroke-width="0.601426"/>
<path d="M66.9702 84.0711C68.2568 66.7144 76.7155 58.8097 75.2265 44.9275C74.3464 36.7222 67.2219 42.942 69.544 50.6391" stroke="black" stroke-width="0.833495"/>
<path opacity="0.11236" fill-rule="evenodd" clip-rule="evenodd" d="M70.3701 107.752C69.5195 110.953 67.8325 108.915 66.3388 109.155C68.7967 112.772 58.803 112.019 61.7698 117.598C61.1126 121.917 62.1175 125.022 66.6993 125.922C68.183 123.838 69.6038 122.132 69.9356 125.976C72.5814 125.177 76.0594 120.605 75.7024 125.304C77.4978 122.468 83.1815 120.99 83.11 117.936C85.987 118.249 89.0779 121.059 91.5064 117.009C93.9446 114.017 94.4851 116.98 94.5219 119.291C97.4857 122.162 100.884 117.752 103.965 117.021C103.172 113.319 107.598 116.364 106.949 113.081C106.524 110.931 120.734 111.568 118.69 109.465C112.583 103.182 103.043 112.648 101.663 112.044C100.282 111.44 98.7571 111.806 100.685 110.889C102.614 109.971 97.9229 111.48 94.0163 110.041C90.1097 108.602 87.2501 110.422 86.9892 114.011C84.0467 112.113 83.8358 114.269 79.2516 115.591C82.1727 111.162 74.0894 114.415 74.0894 114.415C74.0894 114.415 75.4977 109.559 72.967 110.2C74.3276 107.665 72.8175 106.885 72.8175 106.885C72.8175 106.885 73.5628 104.708 70.3701 107.752Z" fill="black"/>
<path fill-rule="evenodd" clip-rule="evenodd" d="M22.4198 56.6031C21.8865 55.618 20.2248 55.3468 20.0109 54.5114C20.3823 53.5411 18.9214 54.2449 18.6336 53.7115C16.9151 55.1705 14.5428 55.8021 13.2693 57.8088C13.9465 57.6548 13.9449 56.6281 13.205 57.3855C11.8115 58.1035 10.4647 59.3647 10.9887 61.1642C11.1156 62.0877 9.99491 62.8823 11.363 63.101C11.1846 64.5795 9.04608 64.5172 9.04481 65.8221C9.51817 67.2453 9.30994 68.7286 8.1841 69.7269C7.07049 70.8069 7.52911 72.3967 7.5697 73.7087C7.00963 74.5863 6.69437 75.4023 7.43256 76.2382C7.58885 77.7459 8.79568 78.7442 8.80468 80.3129C9.31275 81.1351 10.3316 81.0842 10.852 82.0133C12.3722 82.1473 12.4837 84.3488 13.9319 84.6542C15.1758 85.075 16.6477 84.7832 17.7686 85.0918C18.6879 85.8647 19.7431 86.4035 20.9004 86.6205C22.3553 87.5808 22.8498 85.1908 23.7302 84.4212C23.7759 83.2178 24.6095 83.1242 25.1677 84.1374C26.4383 85.0308 27.7547 83.4924 28.6656 82.6783C29.5561 81.6717 30.5551 80.8002 31.5467 79.9176C32.9545 78.2695 33.4543 75.9107 33.3755 73.7414C33.515 72.382 32.2963 72.3068 31.4947 72.1515C31.8571 71.0118 32.7703 69.3719 30.9077 69.2498C29.8396 68.9605 27.4181 67.7229 28.8049 66.419C29.8283 65.1788 28.4199 63.5093 27.7914 62.389C26.7032 61.4907 26.0708 60.2394 25.3941 59.1468C24.084 58.9303 22.8562 58.1046 22.5222 56.6632C22.1725 55.5184 22.4254 56.3661 22.5357 56.9234" fill="white"/>
<path d="M22.4198 56.6031C21.8865 55.618 20.2248 55.3468 20.0109 54.5114C20.3823 53.5411 18.9214 54.2449 18.6336 53.7115C16.9151 55.1705 14.5428 55.8021 13.2693 57.8088C13.9465 57.6548 13.9449 56.6281 13.205 57.3855C11.8115 58.1035 10.4647 59.3647 10.9887 61.1642C11.1156 62.0877 9.99491 62.8823 11.363 63.101C11.1846 64.5795 9.04608 64.5172 9.04481 65.8221C9.51817 67.2453 9.30994 68.7286 8.1841 69.7269C7.07049 70.8069 7.52911 72.3967 7.5697 73.7087C7.00963 74.5863 6.69437 75.4023 7.43256 76.2382C7.58885 77.7459 8.79568 78.7442 8.80468 80.3129C9.31275 81.1351 10.3316 81.0842 10.852 82.0133C12.3722 82.1473 12.4837 84.3488 13.9319 84.6542C15.1758 85.075 16.6477 84.7832 17.7686 85.0918C18.6879 85.8647 19.7431 86.4035 20.9004 86.6205C22.3553 87.5808 22.8498 85.1908 23.7302 84.4212C23.7759 83.2178 24.6095 83.1242 25.1677 84.1374C26.4383 85.0308 27.7547 83.4924 28.6655 82.6783C29.5561 81.6717 30.5551 80.8002 31.5467 79.9176C32.9545 78.2695 33.4543 75.9107 33.3755 73.7414C33.515 72.382 32.2963 72.3068 31.4947 72.1515C31.8571 71.0118 32.7703 69.3719 30.9077 69.2498C29.8396 68.9605 27.4181 67.7229 28.8049 66.419C29.8283 65.1788 28.4199 63.5093 27.7914 62.389C26.7032 61.4907 26.0708 60.2394 25.3941 59.1468C24.084 58.9303 22.8562 58.1046 22.5222 56.6632C22.1725 55.5184 22.4254 56.3661 22.5357 56.9234" stroke="black" stroke-width="0.813602"/>
<path opacity="0.0955056" fill-rule="evenodd" clip-rule="evenodd" d="M11.546 71.7307C10.8899 70.8942 13.4804 71.2882 13.2666 70.4529C13.638 69.4826 13.1936 69.4422 12.9057 68.9088C11.1872 70.3678 11.5919 66.9114 10.3184 68.9181C10.9956 68.7641 10.8842 66.2268 10.1443 66.9842C8.75085 67.7022 9.04608 64.5172 9.04481 65.8221C9.51817 67.2453 9.30994 68.7286 8.1841 69.7269C7.07049 70.8069 7.52911 72.3967 7.5697 73.7087C7.00963 74.5863 6.69437 75.4023 7.43256 76.2382C7.58885 77.7459 8.79568 78.7442 8.80468 80.3129C9.31275 81.1351 10.3316 81.0842 10.852 82.0133C12.3722 82.1473 12.4837 84.3489 13.9319 84.6542C15.1758 85.075 16.6477 84.7832 17.7686 85.0918C18.6879 85.8647 19.7431 86.4035 20.9004 86.6205C22.3553 87.5808 22.8498 85.1908 23.7302 84.4212C23.7759 83.2178 24.6095 83.1242 25.1677 84.1374C26.4383 85.0308 27.7547 83.4924 28.6656 82.6784C29.5561 81.6717 25.2461 82.831 26.2377 81.9484C27.6454 80.3003 23.0614 84.2488 22.9826 82.0795C23.1221 80.72 17.9143 83.8091 19.0172 81.4192C19.3796 80.2794 19.6465 81.1014 17.7839 80.9793C16.7158 80.69 13.7672 78.645 15.154 77.3412C16.1775 76.101 14.6042 77.5351 13.9758 76.4148C12.8875 75.5165 13.5826 76.0111 12.9059 74.9186C11.5957 74.7021 12.1718 74.1467 11.8378 72.7052C11.271 74.3964 11.4356 71.1734 11.546 71.7307Z" fill="black"/>
<path fill-rule="evenodd" clip-rule="evenodd" d="M67.7858 76.1988C67.7858 76.1988 73.1713 61.9591 74.4653 56.2781C75.676 50.9628 75.5194 42.8493 73.7061 41.3477C71.8928 39.846 69.5077 42.4432 69.2563 45.5187C69.005 48.5941 68.7944 49.3691 70.0116 55.2354C70.5634 57.8948 70.2878 64.1983 69.5376 67.1733C68.7874 70.1483 67.1503 76.9235 67.7858 76.1988Z" fill="black" fill-opacity="0.223464"/>
</g>
<defs>
<clipPath id="clip0_0_1">
<rect width="300" height="300" fill="white" transform="translate(67 87)"/>
</clipPath>
<clipPath id="clip1_0_1">
<rect width="175" height="131" fill="white"/>
</clipPath>
</defs>
</svg>
